# Blender 3.6.0
# www.blender.org
mtllib object.mtl
o Plane
v 0.000000 0.000000 1.000000
v -0.239116 2.530215 1.561476
v -1.000000 -0.000000 -1.000000
v 1.000000 -0.000000 -1.000000
v 0.000000 1.759782 -0.000000
v -2.263902 1.618308 1.146660
v -1.358101 1.664283 -2.309390
v -3.538736 2.669936 -1.305442
v 0.111339 2.525160 -0.860378
v -0.416369 0.617678 -0.572220
v -2.080439 2.140544 -0.479571
v -2.067766 4.310942 -1.802187
v -1.811050 2.374427 3.356275
v -0.074043 4.144102 4.147147
v -1.572104 0.897710 5.018265
v -3.148056 2.123949 5.131007
v -1.115711 3.106793 5.110406
v 0.904996 2.120286 3.925652
v -0.448749 -1.974925 1.498258
v 1.288258 -0.205250 2.289130
v -0.209803 -3.451642 3.160248
v -1.785755 -2.225403 3.272990
v 0.246589 -1.242559 3.252389
v 2.267297 -2.229065 2.067636
v -0.513474 -2.898020 -4.383509
v -0.120166 -2.349177 -1.869846
v -2.594094 -2.103535 -4.583041
v -1.120757 -0.932371 -5.259541
v -1.051802 -1.459411 -3.065388
v -1.959765 -3.636524 -2.118881
v 0.265981 3.297225 -6.119084
v -0.055209 4.002490 -3.634359
v 0.894221 1.176361 -5.791595
v -1.013063 1.473582 -6.314973
v -0.342243 2.441237 -4.388714
v 2.039089 3.225086 -3.970464
vn -0.0000 -1.0000 -0.0000
vn 0.8669 0.2463 0.4334
vn -0.8669 0.2463 0.4334
vn -0.0000 0.4941 -0.8694
vn 0.9907 0.0673 0.1185
vn -0.3789 -0.4572 -0.8046
vn -0.0976 -0.2244 0.9696
vn -0.2850 0.8416 -0.4589
vn 0.7530 -0.2970 -0.5872
vn -0.6755 -0.7335 -0.0757
vn -0.2180 0.9201 -0.3255
vn 0.1521 0.1064 0.9826
vn -0.3835 -0.9193 0.0879
vn 0.9293 0.1883 0.3178
vn -0.3898 0.0714 -0.9181
vn -0.2819 0.5005 0.8186
vn -0.5511 -0.6615 -0.5086
vn -0.4283 0.8816 -0.1983
vn 0.9378 -0.1814 -0.2960
vn 0.0336 -0.0486 0.9983
vn -0.7110 0.7031 -0.0117
vn -0.1742 -0.8822 0.4374
vn 0.2194 0.2104 -0.9527
vn 0.5624 0.1838 0.8062
vn -0.0759 -0.4254 -0.9018
vn 0.9486 0.3133 0.0454
vn -0.3286 -0.7019 0.6319
vn -0.5467 0.8101 0.2118
vn 0.8145 0.5270 -0.2425
vn -0.8545 0.1388 -0.5005
vn 0.5626 -0.8217 0.0914
vn -0.4544 0.5077 0.7319
vn 0.2532 -0.0740 -0.9646
vn -0.8185 0.5745 -0.0035
vn 0.8349 0.3168 0.4502
vn -0.2665 -0.8208 0.5052
vn -0.9425 0.2690 -0.1982
vn 0.3462 -0.8836 -0.3154
vn 0.3076 0.9251 -0.2228
vn -0.0159 -0.4326 0.9014
vt 0.535613 0.227478
vt 0.484237 0.156849
vt 0.577188 0.157403
vt 0.712374 0.694653
vt 0.712079 0.773568
vt 0.626080 0.719110
vt 0.608829 0.620886
vt 0.658352 0.553089
vt 0.712647 0.621504
vt 0.409456 0.216175
vt 0.484237 0.156849
vt 0.483973 0.227675
vt 0.677200 0.143880
vt 0.756478 0.098490
vt 0.791996 0.144565
vt 0.882862 0.388443
vt 0.829130 0.319932
vt 0.955706 0.320686
vt 0.709794 0.370019
vt 0.816589 0.319857
vt 0.828941 0.370730
vt 0.823576 0.633198
vt 0.730100 0.566627
vt 0.828207 0.567212
vt 0.554183 0.392188
vt 0.504383 0.317996
vt 0.599477 0.318563
vt 0.837637 0.158956
vt 0.792167 0.098703
vt 0.888966 0.099280
vt 0.516739 0.682191
vt 0.427626 0.707113
vt 0.427923 0.627552
vt 0.513517 0.623629
vt 0.426481 0.623110
vt 0.443293 0.551808
vt 0.956380 0.139908
vt 0.713413 0.416216
vt 0.712349 0.485731
vt 0.601669 0.415550
vt 0.599400 0.339341
vt 0.709984 0.319222
vt 0.709660 0.406113
vt 0.677207 0.142231
vt 0.575233 0.102226
vt 0.677372 0.098019
vt 0.407724 0.231586
vt 0.484154 0.258070
vt 0.407439 0.308009
vt 0.561899 0.483143
vt 0.506229 0.414981
vt 0.601669 0.415550
vt 0.954325 0.690632
vt 0.863352 0.712378
vt 0.863652 0.632094
vt 0.608287 0.765966
vt 0.523264 0.748212
vt 0.608529 0.701352
vt 0.837212 0.438308
vt 0.901711 0.388555
vt 0.955264 0.439012
vt 0.955264 0.439012
vt 0.954974 0.516663
vt 0.840275 0.452144
vt 0.791700 0.499986
vt 0.828207 0.567212
vt 0.720650 0.566571
vt 0.684966 0.309666
vt 0.578267 0.309030
vt 0.663954 0.244146
vt 0.877714 0.712463
vt 0.954144 0.738947
vt 0.877429 0.788887
vt 0.561645 0.550971
vt 0.505976 0.482809
vt 0.601416 0.483378
vt 0.605085 0.552772
vt 0.669968 0.485478
vt 0.712901 0.553415
vt 0.516403 0.772257
vt 0.431379 0.754504
vt 0.516644 0.707644
vt 0.685023 0.294409
vt 0.749521 0.244656
vt 0.803074 0.295112
vt 0.799236 0.158727
vt 0.789680 0.235768
vt 0.683471 0.158037
vt 0.578552 0.232604
vt 0.578267 0.309030
vt 0.484159 0.256738
vt 0.954541 0.632636
vt 0.853191 0.599047
vt 0.954798 0.563874
vt 0.516941 0.628082
vt 0.608800 0.628630
vt 0.586123 0.701218
vt 0.879109 0.227887
vt 0.799178 0.174301
vt 0.880316 0.159210
vt 0.737386 0.687863
vt 0.827961 0.633224
vt 0.827676 0.709616
vt 0.419868 0.488722
vt 0.457698 0.414692
vt 0.505952 0.489236
vt 0.946180 0.159603
vt 0.635392 0.694194
vt 0.619362 0.620948
vt 0.955985 0.245886
vt 0.710663 0.370025
vt 0.828941 0.370730
vt 0.744972 0.416404
vt 0.423287 0.387105
vt 0.503266 0.317990
vt 0.504123 0.387587
vt 0.906064 0.320390
vt 0.803070 0.296377
vt 0.878924 0.245427
vt 0.683230 0.222571
vt 0.576947 0.221937
vt 0.613319 0.157619
vt 0.569515 0.628396
vt 0.513784 0.552228
vt 0.609083 0.552796
vt 0.748213 0.780574
vt 0.754463 0.709180
vt 0.827409 0.781046
vt 0.713102 0.499518
vt 0.766999 0.416535
vt 0.828457 0.500206
vt 0.942895 0.563803
vt 0.847650 0.516024
s 0
usemtl Material.001
f 1/1/1 3/2/1 4/3/1
f 1/4/2 4/5/2 5/6/2
f 3/7/3 1/8/3 5/9/3
f 4/10/4 3/11/4 5/12/4
f 1/13/5 5/14/5 2/15/5
f 5/16/6 1/17/6 6/18/6
f 1/19/7 2/20/7 6/21/7
f 5/22/8 6/23/8 2/24/8
f 7/25/9 9/26/9 10/27/9
f 7/28/10 10/29/10 11/30/10
f 9/31/11 7/32/11 11/33/11
f 10/34/12 9/35/12 11/36/12
f 7/28/13 11/30/13 8/37/13
f 11/38/14 7/39/14 12/40/14
f 7/41/15 8/42/15 12/43/15
f 11/44/16 12/45/16 8/46/16
f 13/47/17 15/48/17 16/49/17
f 13/50/18 16/51/18 17/52/18
f 15/53/19 13/54/19 17/55/19
f 16/56/20 15/57/20 17/58/20
f 13/59/21 17/60/21 14/61/21
f 17/62/22 13/63/22 18/64/22
f 13/65/23 14/66/23 18/67/23
f 17/68/24 18/69/24 14/70/24
f 19/71/17 21/72/17 22/73/17
f 19/74/18 22/75/18 23/76/18
f 21/77/19 19/78/19 23/79/19
f 22/80/20 21/81/20 23/82/20
f 19/83/21 23/84/21 20/85/21
f 23/86/22 19/87/22 24/88/22
f 19/89/23 20/90/23 24/91/23
f 23/92/24 24/93/24 20/94/24
f 25/95/25 27/96/25 28/97/25
f 25/98/26 28/99/26 29/100/26
f 27/101/27 25/102/27 29/103/27
f 28/104/28 27/105/28 29/106/28
f 25/98/29 29/100/29 26/107/29
f 29/108/30 25/109/30 30/9/30
f 25/98/31 26/107/31 30/110/31
f 29/111/32 30/112/32 26/113/32
f 31/114/33 33/115/33 34/116/33
f 31/117/34 34/118/34 35/119/34
f 33/120/35 31/121/35 35/122/35
f 34/123/36 33/124/36 35/125/36
f 31/117/37 35/119/37 32/110/37
f 35/126/38 31/127/38 36/128/38
f 31/129/39 32/130/39 36/131/39
f 35/132/40 36/133/40 32/63/40
